<?xml version="1.0" encoding="utf-8" standalone="no"?>
<!DOCTYPE svg PUBLIC "-//W3C//DTD SVG 1.1//EN"
  "http://www.w3.org/Graphics/SVG/1.1/DTD/svg11.dtd">
<svg xmlns:xlink="http://www.w3.org/1999/xlink" width="852.280625pt" height="66.1525pt" viewBox="0 0 852.280625 66.1525" xmlns="http://www.w3.org/2000/svg" version="1.1">
 <metadata>
  <rdf:RDF xmlns:dc="http://purl.org/dc/elements/1.1/" xmlns:cc="http://creativecommons.org/ns#" xmlns:rdf="http://www.w3.org/1999/02/22-rdf-syntax-ns#">
   <cc:Work>
    <dc:type rdf:resource="http://purl.org/dc/dcmitype/StillImage"/>
    <dc:date>2026-09-21T16:03:01.072118</dc:date>
    <dc:format>image/svg+xml</dc:format>
    <dc:creator>
     <cc:Agent>
      <dc:title>Matplotlib v3.10.7, https://matplotlib.org/</dc:title>
     </cc:Agent>
    </dc:creator>
   </cc:Work>
  </rdf:RDF>
 </metadata>
 <defs>
  <style type="text/css">*{stroke-linejoin: round; stroke-linecap: butt}</style>
 </defs>
 <g id="figure_1">
  <g id="patch_1">
   <path d="M -0 66.1525 
L 852.280625 66.1525 
L 852.280625 0 
L -0 0 
z
" style="fill: #ffffff"/>
  </g>
  <g id="legend_1">
   <g id="line2d_1">
    <defs>
     <path id="m93540848fd" d="M 0 5.8 
C 1.538178 5.8 3.013563 5.188875 4.101219 4.101219 
C 5.188875 3.013563 5.8 1.538178 5.8 0 
C 5.8 -1.538178 5.188875 -3.013563 4.101219 -4.101219 
C 3.013563 -5.188875 1.538178 -5.8 0 -5.8 
C -1.538178 -5.8 -3.013563 -5.188875 -4.101219 -4.101219 
C -5.188875 -3.013563 -5.8 -1.538178 -5.8 0 
C -5.8 1.538178 -5.188875 3.013563 -4.101219 4.101219 
C -3.013563 5.188875 -1.538178 5.8 0 5.8 
z
" style="stroke: #333333; stroke-width: 0.65"/>
    </defs>
    <g>
     <use xlink:href="#m93540848fd" x="28.72" y="16.916875" style="fill: #4e79a7; stroke: #333333; stroke-width: 0.65"/>
    </g>
   </g>
   <g id="text_1">
    <text style="font-size: 20px; font-family: 'Calibri', 'Carlito', 'Arial', 'DejaVu Sans', sans-serif; text-anchor: start" x="55.72" y="23.916875" transform="rotate(-0 55.72 23.916875)">Full Params FT</text>
   </g>
   <g id="line2d_2">
    <defs>
     <path id="m943eae3969" d="M -5.8 5.8 
L 5.8 5.8 
L 5.8 -5.8 
L -5.8 -5.8 
z
" style="stroke: #333333; stroke-width: 0.65; stroke-linejoin: miter"/>
    </defs>
    <g>
     <use xlink:href="#m943eae3969" x="28.72" y="46.273125" style="fill: #f28e2b; stroke: #333333; stroke-width: 0.65; stroke-linejoin: miter"/>
    </g>
   </g>
   <g id="text_2">
    <text style="font-size: 20px; font-family: 'Calibri', 'Carlito', 'Arial', 'DejaVu Sans', sans-serif; text-anchor: start" x="55.72" y="53.273125" transform="rotate(-0 55.72 53.273125)">SafeInstr</text>
   </g>
   <g id="line2d_3">
    <defs>
     <path id="mc60700d760" d="M -1.933333 5.8 
L 1.933333 5.8 
L 1.933333 1.933333 
L 5.8 1.933333 
L 5.8 -1.933333 
L 1.933333 -1.933333 
L 1.933333 -5.8 
L -1.933333 -5.8 
L -1.933333 -1.933333 
L -5.8 -1.933333 
L -5.8 1.933333 
L -1.933333 1.933333 
z
" style="stroke: #333333; stroke-width: 0.65; stroke-linejoin: miter"/>
    </defs>
    <g>
     <use xlink:href="#mc60700d760" x="241.785625" y="16.916875" style="fill: #76b7b2; stroke: #333333; stroke-width: 0.65; stroke-linejoin: miter"/>
    </g>
   </g>
   <g id="text_3">
    <text style="font-size: 20px; font-family: 'Calibri', 'Carlito', 'Arial', 'DejaVu Sans', sans-serif; text-anchor: start" x="268.785625" y="23.916875" transform="rotate(-0 268.785625 23.916875)">Resta</text>
   </g>
   <g id="line2d_4">
    <defs>
     <path id="m3ad990ca20" d="M -5.8 -0 
L 5.8 5.8 
L 5.8 -5.8 
z
" style="stroke: #333333; stroke-width: 0.65; stroke-linejoin: miter"/>
    </defs>
    <g>
     <use xlink:href="#m3ad990ca20" x="241.785625" y="46.273125" style="fill: #59a14f; stroke: #333333; stroke-width: 0.65; stroke-linejoin: miter"/>
    </g>
   </g>
   <g id="text_4">
    <text style="font-size: 20px; font-family: 'Calibri', 'Carlito', 'Arial', 'DejaVu Sans', sans-serif; text-anchor: start" x="268.785625" y="53.273125" transform="rotate(-0 268.785625 53.273125)">SEAL</text>
   </g>
   <g id="line2d_5">
    <defs>
     <path id="m6918da88b5" d="M 5.8 0 
L -5.8 -5.8 
L -5.8 5.8 
z
" style="stroke: #333333; stroke-width: 0.65; stroke-linejoin: miter"/>
    </defs>
    <g>
     <use xlink:href="#m6918da88b5" x="366.604375" y="16.916875" style="fill: #9c755f; stroke: #333333; stroke-width: 0.65; stroke-linejoin: miter"/>
    </g>
   </g>
   <g id="text_5">
    <text style="font-size: 20px; font-family: 'Calibri', 'Carlito', 'Arial', 'DejaVu Sans', sans-serif; text-anchor: start" x="393.604375" y="23.916875" transform="rotate(-0 393.604375 23.916875)">AsFT</text>
   </g>
   <g id="line2d_6">
    <defs>
     <path id="m213a55c6de" d="M 0 -5.8 
L -5.516128 -1.792299 
L -3.409154 4.692299 
L 3.409154 4.692299 
L 5.516128 -1.792299 
z
" style="stroke: #333333; stroke-width: 0.65; stroke-linejoin: miter"/>
    </defs>
    <g>
     <use xlink:href="#m213a55c6de" x="366.604375" y="46.273125" style="fill: #7e4ea9; stroke: #333333; stroke-width: 0.65; stroke-linejoin: miter"/>
    </g>
   </g>
   <g id="text_6">
    <text style="font-size: 20px; font-family: 'Calibri', 'Carlito', 'Arial', 'DejaVu Sans', sans-serif; text-anchor: start" x="393.604375" y="53.273125" transform="rotate(-0 393.604375 53.273125)">Lisa</text>
   </g>
   <g id="line2d_7">
    <defs>
     <path id="maef28a3801" d="M -0 8.202439 
L 8.202439 0 
L -0 -8.202439 
L -8.202439 0 
z
" style="stroke: #333333; stroke-width: 0.65; stroke-linejoin: miter"/>
    </defs>
    <g>
     <use xlink:href="#maef28a3801" x="483.073125" y="16.916875" style="fill: #b07aa1; stroke: #333333; stroke-width: 0.65; stroke-linejoin: miter"/>
    </g>
   </g>
   <g id="text_7">
    <text style="font-size: 20px; font-family: 'Calibri', 'Carlito', 'Arial', 'DejaVu Sans', sans-serif; text-anchor: start" x="510.073125" y="23.916875" transform="rotate(-0 510.073125 23.916875)">SafeDelta</text>
   </g>
   <g id="line2d_8">
    <defs>
     <path id="m9c8c0cee29" d="M -0 5.8 
L 5.8 -5.8 
L -5.8 -5.8 
z
" style="stroke: #333333; stroke-width: 0.65; stroke-linejoin: miter"/>
    </defs>
    <g>
     <use xlink:href="#m9c8c0cee29" x="483.073125" y="46.273125" style="fill: #e15759; stroke: #333333; stroke-width: 0.65; stroke-linejoin: miter"/>
    </g>
   </g>
   <g id="text_8">
    <text style="font-size: 20px; font-family: 'Calibri', 'Carlito', 'Arial', 'DejaVu Sans', sans-serif; text-anchor: start" x="510.073125" y="53.273125" transform="rotate(-0 510.073125 53.273125)">SN-Tune</text>
   </g>
   <g id="line2d_9">
    <defs>
     <path id="m868750f49a" d="M 0 -5.8 
L -5.8 5.8 
L 5.8 5.8 
z
" style="stroke: #333333; stroke-width: 0.65; stroke-linejoin: miter"/>
    </defs>
    <g>
     <use xlink:href="#m868750f49a" x="649.7325" y="16.916875" style="fill: #ff8c7a; stroke: #333333; stroke-width: 0.65; stroke-linejoin: miter"/>
    </g>
   </g>
   <g id="text_9">
    <text style="font-size: 20px; font-family: 'Calibri', 'Carlito', 'Arial', 'DejaVu Sans', sans-serif; text-anchor: start" x="676.7325" y="23.916875" transform="rotate(-0 676.7325 23.916875)">RSN-Tune</text>
   </g>
   <g id="line2d_10">
    <defs>
     <path id="mf0ca8c842b" d="M 0 -8 
L -1.796112 -2.472136 
L -7.608452 -2.472136 
L -2.90617 0.944272 
L -4.702282 6.472136 
L -0 3.055728 
L 4.702282 6.472136 
L 2.90617 0.944272 
L 7.608452 -2.472136 
L 1.796112 -2.472136 
z
" style="stroke: #333333; stroke-width: 0.65; stroke-linejoin: bevel"/>
    </defs>
    <g>
     <use xlink:href="#mf0ca8c842b" x="649.7325" y="46.273125" style="fill: #d4a017; stroke: #333333; stroke-width: 0.65; stroke-linejoin: bevel"/>
    </g>
   </g>
   <g id="text_10">
    <text style="font-size: 20px; font-family: 'Calibri', 'Carlito', 'Arial', 'DejaVu Sans', sans-serif; text-anchor: start" x="676.7325" y="53.273125" transform="rotate(-0 676.7325 53.273125)">WSR-Tune (Ours)</text>
   </g>
  </g>
 </g>
</svg>
